<mxfile host="65bd71144e">
    <diagram id="3I38psnjEXmTIGfI0AUv" name="Page-1">
        <mxGraphModel dx="1011" dy="499" grid="1" gridSize="10" guides="1" tooltips="1" connect="1" arrows="1" fold="1" page="1" pageScale="1" pageWidth="1169" pageHeight="1654" math="0" shadow="0">
            <root>
                <mxCell id="0"/>
                <mxCell id="1" parent="0"/>
                <mxCell id="nNA0iOwPdXY2K0Z5HGgE-20" value="" style="group" parent="1" vertex="1" connectable="0">
                    <mxGeometry x="360" y="160" width="430" height="190" as="geometry"/>
                </mxCell>
                <mxCell id="2" value="" style="rounded=1;whiteSpace=wrap;html=1;strokeWidth=1;fillWeight=4;hachureGap=8;hachureAngle=45;fillColor=default;sketch=1;dashed=1;align=center;" parent="nNA0iOwPdXY2K0Z5HGgE-20" vertex="1">
                    <mxGeometry x="115" y="30" width="310" height="190" as="geometry"/>
                </mxCell>
                <mxCell id="3" value="&lt;font data-font-src=&quot;https://fonts.googleapis.com/css?family=Architects+Daughter&quot; face=&quot;Architects Daughter&quot; style=&quot;font-size: 14px;&quot;&gt;Fly Machine App&amp;nbsp;&lt;/font&gt;&lt;div&gt;&lt;font data-font-src=&quot;https://fonts.googleapis.com/css?family=Architects+Daughter&quot; face=&quot;Architects Daughter&quot; style=&quot;font-size: 9px;&quot;&gt;region: nrt (Tokyo)&lt;/font&gt;&lt;/div&gt;" style="text;html=1;strokeColor=none;fillColor=none;align=center;verticalAlign=middle;whiteSpace=wrap;rounded=0;dashed=1;strokeWidth=1;" parent="nNA0iOwPdXY2K0Z5HGgE-20" vertex="1">
                    <mxGeometry x="305" y="40" width="120" height="30" as="geometry"/>
                </mxCell>
                <mxCell id="5" value="&lt;div&gt;&lt;br&gt;&lt;/div&gt;" style="rounded=1;whiteSpace=wrap;html=1;strokeWidth=2;fillWeight=4;hachureGap=8;hachureAngle=45;sketch=1;dashed=1;fontFamily=Architects Daughter;fontSource=https%3A%2F%2Ffonts.googleapis.com%2Fcss%3Ffamily%3DArchitects%2BDaughter;fontSize=14;fillColor=#f5f5f5;strokeColor=#666666;fontColor=#333333;" parent="1" vertex="1">
                    <mxGeometry x="500" y="250" width="120" height="110" as="geometry"/>
                </mxCell>
                <mxCell id="nNA0iOwPdXY2K0Z5HGgE-5" style="shape=image;editableCssRules=.*;image=data:image/svg+xml,PHN2ZyB2aWV3Qm94PSIwIDAgMjQgMjQiIHhtbG5zPSJodHRwOi8vd3d3LnczLm9yZy8yMDAwL3N2ZyI+PHN0eWxlPip7ZmlsbDojMDBBREQ4fTwvc3R5bGU+PHBhdGggZD0iTTEuODExIDEwLjIzMWMtLjA0NyAwLS4wNTgtLjAyMy0uMDM1LS4wNTlsLjI0Ni0uMzE1Yy4wMjMtLjAzNS4wODEtLjA1OC4xMjgtLjA1OGg0LjE3MmMuMDQ2IDAgLjA1OC4wMzUuMDM1LjA3bC0uMTk5LjMwM2MtLjAyMy4wMzYtLjA4Mi4wNy0uMTE3LjA3ek0uMDQ3IDExLjMwNmMtLjA0NyAwLS4wNTktLjAyMy0uMDM1LS4wNThsLjI0NS0uMzE2Yy4wMjMtLjAzNS4wODItLjA1OC4xMjktLjA1OGg1LjMyOGMuMDQ3IDAgLjA3LjAzNS4wNTguMDdsLS4wOTMuMjhjLS4wMTIuMDQ3LS4wNTguMDctLjEwNS4wN3ptMi44MjggMS4wNzVjLS4wNDcgMC0uMDU5LS4wMzUtLjAzNS0uMDdsLjE2My0uMjkyYy4wMjMtLjAzNS4wNy0uMDcuMTE3LS4wN2gyLjMzN2MuMDQ3IDAgLjA3LjAzNS4wNy4wODJsLS4wMjMuMjhjMCAuMDQ3LS4wNDcuMDgyLS4wODIuMDgyem0xMi4xMjktMi4zNmMtLjczNi4xODctMS4yMzkuMzI3LTEuOTYzLjUxNC0uMTc2LjA0Ni0uMTg3LjA1OC0uMzQtLjExNy0uMTc0LS4xOTktLjMwMy0uMzI3LS41NDgtLjQ0NC0uNzM3LS4zNjItMS40NS0uMjU3LTIuMTE1LjE3NS0uNzk1LjUxNC0xLjIwNCAxLjI3NC0xLjE5MiAyLjIyLjAxMS45MzUuNjU0IDEuNzA2IDEuNTc3IDEuODM1Ljc5NS4xMDUgMS40Ni0uMTc1IDEuOTg3LS43Ny4xMDUtLjEzLjE5OC0uMjcuMzE1LS40MzRIMTAuNDdjLS4yNDUgMC0uMzA0LS4xNTItLjIyMi0uMzUuMTUyLS4zNjIuNDMyLS45Ny41OTYtMS4yNzRhLjMxNS4zMTUgMCAwMS4yOTItLjE4N2g0LjI1M2MtLjAyMy4zMTYtLjAyMy42MzEtLjA3Ljk0N2E0Ljk4MyA0Ljk4MyAwIDAxLS45NTggMi4yOWMtLjg0MSAxLjExLTEuOTQgMS44LTMuMzMgMS45ODYtMS4xNDUuMTUyLTIuMjA5LS4wNy0zLjE0My0uNzctLjg2NS0uNjU1LTEuMzU2LTEuNTItMS40ODQtMi41OTUtLjE1Mi0xLjI3NC4yMjItMi40MTkuOTkzLTMuNDI0LjgzLTEuMDg2IDEuOTI4LTEuNzc2IDMuMjcyLTIuMDIgMS4wOTgtLjIgMi4xNS0uMDcgMy4wOTYuNTcxLjYyLjQxIDEuMDYzLjk3IDEuMzU2IDEuNjQ4LjA3LjEwNS4wMjMuMTY0LS4xMTcuMm0zLjg2OCA2LjQ2MWMtMS4wNjQtLjAyNC0yLjAzNC0uMzI4LTIuODUyLTEuMDI5YTMuNjY1IDMuNjY1IDAgMDEtMS4yNjItMi4yNTVjLS4yMS0xLjMyLjE1Mi0yLjQ4OS45NDctMy41MjkuODUzLTEuMTIyIDEuODgxLTEuNzA2IDMuMjcyLTEuOTUgMS4xOTItLjIxIDIuMzE0LS4wOTUgMy4zMy41OTUuOTIzLjYzIDEuNDk2IDEuNDg0IDEuNjQ4IDIuNjA1LjE5OCAxLjU3OC0uMjU3IDIuODYzLTEuMzQ0IDMuOTYyLS43NzEuNzgzLTEuNzE4IDEuMjczLTIuODA1IDEuNDk1LS4zMTUuMDYtLjYzLjA3LS45MzQuMTA2em0yLjc4LTQuNzJjLS4wMTEtLjE1My0uMDExLS4yNy0uMDM0LS4zODctLjIxLTEuMTU3LTEuMjc0LTEuODEtMi4zODQtMS41NTQtMS4wODcuMjQ1LTEuNzg4LjkzNS0yLjA0NSAyLjAzMy0uMjEuOTEyLjIzNCAxLjgzNSAxLjA3NSAyLjIxLjY0My4yOCAxLjI4NS4yNDQgMS45MDUtLjA3LjkyMy0uNDggMS40MjUtMS4yMjggMS40ODQtMi4yMzN6Ii8+PC9zdmc+;" parent="1" vertex="1">
                    <mxGeometry x="500" y="250" width="55" height="40" as="geometry"/>
                </mxCell>
                <mxCell id="nNA0iOwPdXY2K0Z5HGgE-7" value="&lt;div&gt;&lt;font data-font-src=&quot;https://fonts.googleapis.com/css?family=Architects+Daughter&quot; face=&quot;Architects Daughter&quot; style=&quot;font-size: 12px;&quot;&gt;Web App&lt;/font&gt;&lt;/div&gt;" style="text;html=1;strokeColor=none;fillColor=none;align=center;verticalAlign=middle;whiteSpace=wrap;rounded=0;dashed=1;strokeWidth=1;" parent="1" vertex="1">
                    <mxGeometry x="515" y="320" width="90" height="30" as="geometry"/>
                </mxCell>
                <mxCell id="nNA0iOwPdXY2K0Z5HGgE-8" style="shape=image;editableCssRules=.*;image=data:image/svg+xml,PHN2ZyB2aWV3Qm94PSIwIDAgMjQgMjQiIHhtbG5zPSJodHRwOi8vd3d3LnczLm9yZy8yMDAwL3N2ZyI+PHN0eWxlPip7ZmlsbDojMDA4RUNGfTwvc3R5bGU+PHBhdGggZD0iTTExLjgzNiAyMy45NzdjLTIuMDU4Ny0uMTA0Ni0zLjM2OTgtLjM1OTQtNC40NjgtLjg2ODQtLjEzMS0uMDYwNi0uMTE1My0uMDI3Mi0uMjc4LS41OTYtLjI3NTUtLjk2MjctLjU1MzQtMi4xMjgtLjc4NDgtMy4yOS0uMTM1LS42NzgtLjE1MzUtLjc2MTQtLjQ3MTYtMi4xMTc2LS41MTA0LTIuMTc2Mi0uNjQwMi0yLjgzMS0uODA0LTQuMDU1Ny0uMTA2NC0uNzk2Mi4xMjIzLTEuMzE1Ni4yNzU0LS42MjU1LjYwMjYgMi43MTQ4IDEuMTI0IDQuNjk2OSAxLjY3NTMgNi4zNjg0LjE5MDEuNTc2NC4xNzUyLjU1MjUuMzM0Ny41MzcuMTA5NS0uMDEwNS4xMDk3LS4wMDk2LjAyNzguMTgxMS0uMTExOC4yNjA0LS4wNTczLjM5OTEuMjkxMy43NDA5LjI2MTIuMjU2LjI2MzguMjcxMi4wNDA3LjIzODctLjE3NC0uMDI1NC0uMTY1NS0uMDQzNC0uMTAyMy4yMTM4LjAyOTUuMTE5OS4wODA5LjM0NDguMTE0MS40OTk3LjI2NDQgMS4yMzE0LjYwOTQgMS44MzM2IDEuMTEyMSAxLjk0MSAxLjQ2ODQuMzEzOSAzLjYwMTIuNDUwMiA1LjQ3OTQuMzUwMyAyLjE4MTctLjExNiAyLjcwMzctLjE5ODkgMy4zODEyLS41MzY4LjQ1ODItLjIyODYuODUyOC0uNjU2OS42MTEtLjY2MzItLjE3ODEtLjAwNDctLjE5NDgtLjA0NjQtLjA0MzctLjEwOS4zMjktLjEzNjUuNDY4LS4yODE4LjQ0MTEtLjQ2MTItLjAwOC0uMDUzNS4wMDIxLS4xMDk0LjA0MjItLjIzMTguMTIzMi0uMzc2Mi4xNDM5LS42ODIyLjExMjMtMS42NjQtLjAxNDYtLjQ1NDMtLjAxMzYtLjQ4Ny4wMjEtLjY1NzQuMDkxMi0uNDQ5LjEzMi0uNzg4Ni4xOTktMS42NTY0LjA0NzQtLjYxMjYuMDYyNy0uNzY2LjExMTgtMS4xMTg2LjA0OTEtLjM1MzIuMDY0OC0uNTUzNy4wOTI5LTEuMTg2OC4wNTQ5LTEuMjM4NS4xMTYtMS43MzE3LjIyODctMS44NDQzLjE4ODQtLjE4ODUuMTg3NC0uMjg5LS4wMDYtLjU2MzMtLjIyMDUtLjMxMjktLjIxOTgtLjQ3NjUuMDAzLS43MTEuMTA4NS0uMTE0Mi4xMTMyLS4yNDIuMDM5MS0xLjA2NTItLjAxOS0uMjExNC0uMDM5NC0uNTI4NC0uMDQ1Mi0uNzA0NS0uMDA3My0uMjE3LS4wMTY5LS4zMjAyLS4wMjk3LS4zMjAyLS4wNDEgMC0uMzA2LjIyNjQtLjg4OTQuNzYtLjY2MzUuNjA2OC0uODM2OC43NS0xLjIwODkuOTk4NC0uNzY3NC41MTIzLTEuNTA0Mi43NjMzLTIuNzc4Ny45NDYyLTEuMjg2NC4xODQ3LTIuODAwOC4xNDExLTMuNzkyMi0uMTA5Mi0uNjY4MS0uMTY4Ni0xLjA1NS0uMzUwNy0xLjgwODUtLjg1MTItLjcwNTgtLjQ2ODgtLjY2NzQtMS4yMjc3LjA3OS0xLjU2MjQuMzM2Mi0uMTUwNy4wNzYtLjMxNDktLjU5ODYtLjM3NzgtLjUwNzQtLjA0NzQtLjI0OTUtLjE0NjEuMzk5Ni0uMTUzLjc4ODctLjAwODMgMS4zNDktLjI4ODQgMi4wNzM2LTEuMDM2My4zMDM0LS4zMTMxLjM3NC0uMzc0Ni43NzgyLS42NzcuNjQyOC0uNDgwOC44Njk2LS42ODk1Ljk3Mi0uODk0Ny4wNzc2LS4xNTUuMDczMy0uMzA4Mi0uMDA5NC0uMzM5Ny0uMDI3MS0uMDEwMy0uMDQwNC0uMDI5LS4wNDA0LS4wNTY2IDAtLjA1MTcuMTU3MS0uMDQ0Mi0yLjU2MTUtLjEyMi0yLjg2ODItLjA4MjItNS4wMzk1LS4yMTE4LTYuMTQ3Ni0uMzY3LS4yMTY0LS4wMzA0LS4xMTMzLjE2MTUuMTUwOS4yODA2LjA4MzYuMDM3Ny4wOTE0LjA3MTQuMDE5OC4wODUyLS4xOTUyLjAzNzctLjE4NDQuMDEtLjEyODQuMzI4My4yMTczIDEuMjM1LjU1NDggMS41NDE4IDEuMjE1MiAxLjEwNDcuMTMwOS0uMDg2Ni4xNzY1LS4xMDI3LjQ5NjEtLjE3NTMuNy0uMTU4OSAxLjQ1NTYtLjI0NjQgMi41ODM4LS4yOTkzIDEuMTYzMy0uMDU0NSAxLjI4OTItLjA1ODggMS4zMDMyLS4wNDQ4LjAzMDUuMDMwNC0uNTU5OS4xMTAxLTEuNTkzNS4yMTUtMS4wNy4xMDg2LTEuNDI4Ny4xNTc3LTEuOTI2LjI2MzgtLjEzNDIuMDI4Ni0uMjgwMi4wNTIxLS4zMjQ1LjA1MjItLjI4OTUuMDAwOC0uNzExNC4yOTMxLS44NjQ0LjU5ODgtLjE5MjYuMzg1MS0uMDE1Mi42MTUzLjUxMDcuNjYyNy4xNzYxLjAxNTkuNjA2My4wOTIzLjY4MjYuMTIxMy4wNjU4LjAyNS4wNTI1LjA2NjMtLjAzMzcuMTA0NC0uMDkzMi4wNDEzLS4wOTMuMDM5LS4wMDg1LjA5MjIuMTY4OC4xMDY2LjA5NjkuMDk5OC0uMzctLjAzNTEtLjc3ODUtLjIyNS0uOTM2OC0uMjM3OS0uNzIzLS4wNTg4LjEwMTUuMDg1LjA5NzIuMTA5Ni0uMDEzMi4wNzYtLjE3MTItLjA1MTktLjE2NzYtLjA4NjUtLjA2MzYuNjA1Mi4xMzMyLjg4NTguMDMxLjg0MTktLjE1NDUtLjA2NjUtLjI1NTQtMS4yNS0uNjY4Ni0yLjMxNDQtLjQ4NC0xLjI0NjYuMDQuMjMxOC4wODUzLjQxNDYuMjE5Ny44ODguMTgxMS42MzguMjg3MiAxLjI0OTMuMjIzNyAxLjI4ODUtLjAyOTcuMDE4NC0uMTkwNC0uNDg0NC0uMzAyOC0uOTQ3LS4xMjQtLjUxMDItLjE3NjctLjgwMDUtLjQzMjgtMi4zODIxLS4xMjk4LS44MDItLjI0MjUtMS4zNDY0LS4zNzgtMS44MjY1LS4wNzczLS4yNzM2LS4wNDk3LS40MDMuMTI4LS42MDA4LjM2NDQtLjQwNTIgMS4yNzQ2LS42NTI4IDEuMjc0Ni0uMzQ2NiAwIC4xNDctLjE4Ny4yNDU4LS42NDM2LjM0MDItLjUyMDQuMTA3Ni0uNTYzMi4xNzUxLS4yODk3LjQ1NzguMjQ4Ni4yNTY5IDEuODE0Mi40ODA4IDMuNzI1NC41MzI3LjM2NjMuMDEuOTExOS4wMjU5IDEuMjEyNC4wMzU0IDIuMTMzOS4wNjc0IDQuMzg3Ny4wNjYzIDQuNTE4NC0uMDAyMi4wMTUtLjAwNzkuMDgzNy0uMTA1LjE1MjctLjIxNTguMjgyNS0uNDU0LjU1Mi0uNzk1Ljk0NDUtMS4xOTU0LjI3ODItLjI4MzguMjg2NS0uMjk0Mi4yNDE3LS4zMDU1LS4xMzItLjAzMy0uMTQyNy0uNTYyMS0uMDEyNy0uNjI4Mi4yMzgzLS4xMjEuMzU0Mi0uMjkxOC43MjgzLTEuMDcyNS4xOTgtLjQxMzMuMzA5My0uNTk1NS40Nzc3LS43ODI1LjE0NTctLjE2MTguMjU2OS0uMzg1LjQyMS0uODQ1Mi4xNjE0LS40NTI0LjI2MzktLjY2MzUuMzc5OS0uNzgyMy4yMjMtLjIyODUuMjMyNC0uMTAzLjAzNjMuNDkwMy0uMTYyLjQ5LS43MTExIDEuNjg2LTEuMTI2OCAyLjQ1NDItLjM1NS42NTYtLjMwNy44NDUxLjE4ODEuNzQyNy4wODgzLS4wMTgyLjE3MDYtLjAyNC4yNDYyLS4wMTcuMTMwNi4wMTE5LjI3MjMtLjAxNzQuNjIxMy0uMTI4NC4yODkyLS4wOTIuMzI2NC0uMDc2OS4yMDEuMDgxOC0uMDg5MS4xMTI4LS4wODg3LjExNDIuMDUzLjE3OTkuMTQwNS4wNjUuMTMwMS4wNzgzLS4wNjExLjA3ODMtLjI2NSAwLS40NDk4LjEwNTktLjQ3NjYuMjczMi0uMDExOC4wNzQtLjAxMTguMDc0LS4xMjI2LS4wNDczLS4zMDU4LS4zMzUtLjY0NTItLjI4MDgtLjg1MS4xMzYtLjA3Mi4xNDU4LS4xODU2LjI1MjgtLjI2ODQuMjUyOC0uMDUxMyAwLS4wMzkzLS4wMzM5LjA4Mi0uMjMyLjI5My0uNDc4NC4yOTg1LS41NjE4LjAyOC0uNDI0NS0uMzA4LjE1NjMtLjc4MzcuODI2MS0uODAzIDEuMTMwOC0uMDE3LjI2NTUuMjk1Ni40MDgzLjUzMjcuMjQzNC45MDE3LS42MjcgMS4zNDgtLjg3NDguOTc5NC0uNTQzOC0uMDc2NS4wNjg3LS4xNTkuMTQ4LS4xODMyLjE3NjItLjE3NDQuMjAyOC0uMzEwNi4yOTMzLS41NjU2LjM3NTctLjg0OTMuMjc0NS0uODQ5My42NTU4IDAgLjYzNTUuMjI2NS0uMDA1NS40MjI1LS4wMDIyLjQ3NzQuMDA3OS40MTIuMDc1NiAyLjIzMzQtLjIzNzggMy4xNjE2LS41NDQuNTg3OC0uMTkzOC42ODQ0LS40MjkzLjMyMjktLjc4NjctLjQ2NDctLjQ1OTItLjk1OS0uMzY4NC0uNjQ2Ni4xMTg5LjE5MzYuMzAyLS4zODgyLjYyMzItMS4zNzA1Ljc1NjUtLjQ0MjUuMDYtLjYxMTMuMDg5OC0uNzczOC4xMzYzLS4xMTA4LjAzMTgtLjQzNzkuMDcxOS0uNzA0LjA4NjMtLjM1MjMuMDE5LS40NjQyLS4wMjc0LS4xOTI1LS4wOC40MTU4LS4wODA0LjU4MjItLjEwNSAxLjA3ODMtLjE1OTggMS4zMzAzLS4xNDY4IDEuNzU5Mi0uMzU0OCAxLjc2MjctLjg1NDguMDAxOS0uMjc3Ny0uMjIyNy0uMzE5OC0uODUwNi0uMTU5OC0uMjAxLjA1MTMtLjIwOTMuMDMyNC0uMDI0OC0uMDU2NC4yODIxLS4xMzU4LjI1OTktLjI1MTktLjA3MTctLjM3NC0uMTEwNy0uMDQwOC0uMTEwNy0uMDQwOC4wNTE2LS4wNTM4Ljc0MjItLjA1OTUgMS4xMDQ4LS4zNTQ2Ljc1OTMtLjYxODItLjA2NzctLjA1MTYtLjA2NTctLjA2ODUuMDEtLjA4MzcuMDI5LS4wMDU4LjA4Ni0uMDM0NC4xMjY2LS4wNjM1LjE2MzQtLjExNzQuMjk5Ny4yNDYuMTU1Ni40MTQ0LS4xOTguMjMxMy0uMDM1OS41MzEyLjM1Ny42NjAyLjQwMy4xMzIzLjU4ODctLjA1MDYuNDIyMi0uNDE1OC0uMDMtLjA2NTctLjA4OS0uMjU3OC0uMTMxLS40MjY5LS4yMzk4LS45NjMxLS43NTk1LTIuMDQwNy0uOTg0My0yLjA0MDctLjAyMTYgMC0uMDM2LS4wMTk2LS4wNDc1LS4wNjQtLjIxNDctLjgzNDMtLjI4NzgtLjk4OTMtLjUzNDgtMS4xMzMzLS40MTk1LS4yNDQ1LS41NTEtLjY2ODctLjE2MzYtLjUyNzUuODg3My4zMjM2IDEuODIyMyAxLjQ0OTQgMi41MzI1IDMuMDQ5NS41NjU0IDEuMjc0LjY5MzIgMy4xNjguMzIzOSA0LjgwMzktLjIwMy44OTk0LS4zNjMgMi42NjU2LS41NDYyIDYuMDMwMS0uMDc0OSAxLjM3NDUtLjE0OTIgMi4zODg0LS4yMzg1IDMuMjUzMi0uMDIyMy4yMTYtLjA0NTMuNDY5Ni0uMDUxLjU2MzUtLjA0MzguNzA4LS4yMDM1IDIuMDI3NS0uMzYwNyAyLjk4LS4wMzMuMTk5NS0uMDQ3My4zNjk2LS4wNTg1LjY5MTUtLjA0MjIgMS4yMjA0LS40MzE1IDEuODIyNy0xLjI1ODEgMS45NDY4YTIuNzE4OSAyLjcxODkgMCAwIDAtLjMyNS4wNzVjLTEuMDgwMS4zMzE3LTIuMTY2LjQ3MS00LjM0MjUuNTU3LS43MjguMDI4OC0uNzA4Ny4wMjg4LTEuMzA2NC0uMDAxNnptLjI2MTUtLjIzNTZjLjA0NzQtLjA0NzQtLjI0MTEtLjA4OTYtLjg4NDctLjEyOTctLjE2NDQtLjAxMDItLjM1MjctLjAyNi0uNDE4NC0uMDM1Mi0uNDE3Ny0uMDU4LTEuMTY5OC0uMTAyOS0xLjE2OTgtLjA2OTkgMCAuMTI3NiAyLjM1NjQuMzUxNCAyLjQ3My4yMzQ4em0tNC4wOTUyLS44NjM0YzAtLjA0MDYtLjMzNjQtMS4zNjk4LS40MDQ0LTEuNTk3Ny0uMTI1Mi0uNDItLjM3NjYtMS4wMTU5LS40MjMxLTEuMDAzLS4wNjk3LjAxOTIuMDk4OC45MDQzLjI3NTQgMS40NDcuMTc0NC41MzU4LjU1MjEgMS4zMjUyLjU1MjEgMS4xNTM3em0tLjUyNDYtLjEzMDVjLjA0MzMtLjI3NDUtLjA0MTgtLjY3MzItLjMzNTEtMS41NzA0LS4xNzYtLjUzODItLjIzNDEtLjc0MTQtLjI3Ni0uOTY0MS0uMDQ0MS0uMjM1Ni0uMDQwMi0uMjI0OC0uMDc5OS0uMjE4OC0uMTY1NS4wMjQ2LS4xNTEuMjg1LjA1NC45NzUyLjE0ODQuNDk5Ni4xNjU0LjU2NzMuMTg3OS43NTA2LjA2NC41MjAzLjQwNTcgMS4zMDIxLjQ0OSAxLjAyNzV6bS0uNzkwNC0zLjI4MTZjLS4wMDAxLS4zNDM2LS4wNDg1LS42MjM0LS4yMDQ0LTEuMTgyNi0uMTc0NC0uNjI1My0uMjQzNS0uODk2LS4yODI1LTEuMTA1OC0uMDc0NS0uNDAxNy0uMjI5Mi0uNjIxLS4xODA3LS4yNTY0LjAyNi4xOTQ4LjIxNSAxLjE3OTIuMjY2NSAxLjM4NzguMDIzMy4wOTQuMDYxOC4zMjY4LjA4NTcuNTE3NC4wNjYyLjUyODIuMTAxOC42NzM0LjE5Ny44MDQ5LjA5NzcuMTM0Ny4xMTg1LjEwNTUuMTE4NC0uMTY1M3ptNS43ODIzLTguMjIwMWMuMDQ3LS4wNTIxLjAzODQtLjE2NTktLjAzNDgtLjQ1OTItLjEtLjM5OTktLjA5OTYtLjU4NjIuMDAxMy0uNzQwMS4xNzA3LS4yNjA3LS44MTY0LS4zNzY4LTEuMzk4LS4xNjQ1LS41My4xOTM0LS42NDguNTE3NC0uMzE5Mi44NzcuMTYxMy4xNzY2LS4wNzQ3LjI3Mi0uMjk3My4xMjAzLS4zMDQxLS4yMDc0LS4yNzY2LS44NjEyLjAzNjMtLjg2MTIuMDM2MiAwIC4xMDYtLjA3My4xMDYtLjExMSAwLS4wNTYxLS4wNjc0LS4xMDM1LS4yMTEtLjE0OC0uMTk4NC0uMDYxNy0uMTk3NC0uMDc0MS4wMDg1LS4xMDguNDgzMi0uMDc5My45MzktLjQyMTkgMS42NTg5LTEuMjQ2Ny45MzUtMS4wNzE0IDEuMzA3NS0xLjM5MjcuODExNi0uNzAwMi0uMjUwNC4zNDk3LS40NTk5LjU5Mi0uODc4MyAxLjAxNi0uNzUwMS43NjAzLS44NDM0LjkyMjItLjUzMTMuOTIyMi40NzIgMCAuNjgyNi0uMTkzNyAxLjExNDItMS4wMjQ2LjQwNzYtLjc4NDguNjA4NC0uOTg2Ni44OTYzLS45MDEuMTIxNy4wMzYyLjEyMS4wMzg2LS4yMTg2Ljg3NTQtLjMxNC43NzM2LS4yOTk3Ljk4Ni4wNTQzLjgxMDYuMTc2Ny0uMDg3NS4xNy0uMDc2Mi4yNDAzLS40MDkzLjE3My0uODIwNi41Mjk5LTEuOTQ2OC42MTctMS45NDY4LjExNTMgMCAuMDQ2My41MDU0LS4xNDI0IDEuMDQxNy0uMjg0Mi44MDgxLS4yOTggMS4wNjg2LS4wNjg0IDEuMjk1OS4yNTAxLjI0NzYuNTMwNS4yMDIuNzQ3NC0uMTIxNi4wNzkzLS4xMTg0LjExNDUtLjEwMjMuMTc2My4wODA5LjA0Ni4xMzYzLjA1MzYuMTQwOC4yNDQuMTQzNC4yNjE3LjAwMzcuNjE5NS0uMDkxLjYzOTItLjE2OS4wMDY0LS4wMjU0LjAyMDYtLjA0MDIuMDM1LS4wMzY0LjE0MDguMDM2OS4xMzg4LS4xMDY1LS4wMDI1LS4xNjczLS4wOTE4LS4wMzk1LS4wOTk4LS4wNjQ1LS4wMzItLjA5OTIuMTQ5OS0uMDc2NC4zMDYxLjAzOC4zMDYxLjIyNDMgMCAuMDc4NC4wMTg2LjA4ODUuMjA1LjExIDEuMjE3NS4xNDEyIDEuOTQ5Ni0uMTc2IDIuMzY0LTEuMDI0LjA3MDYtLjE0NDUuMjA1LS40MDg2LjI5OS0uNTg3LjMzNDgtLjYzNjcuNDcyNi0xLjEwMjYuNDEyMS0xLjM5MzgtLjAzNTItLjE2OTktLjAxNjktLjE2NC0uMzc5Mi0uMTItMS44NTgyLjIyNTYtMy41MjkyLjM3OTQtNC45MzMuNDU0LS4yNjc3LjAxNDEtLjU1NTMuMDI5OC0uNjM5LjAzNDgtLjE1MjUuMDA5LS4xNTI1LjAwOS0uNDUyNi4zMDM1LS40ODQ2LjQ3NTQtLjkwNDIuODYwNi0xLjcwMDUgMS41NjA2LS4yMjU0LjE5ODItLjQzMjkuMzg1My0uNDYxLjQxNTgtLjA4MDQuMDg2OC0uMzQ0Mi4yOTU0LS43MzQ0LjU4MDYtLjgxNS41OTU3LTEuMjM4MSAxLjA1NDMtMS4wOTczIDEuMTg5LjE2MTMuMTU0NSAxLjM3MS4zNzUxIDIuMzc4LjQzMzkuMTY5Mi4wMDk5LjQwMzUuMDI5LjUyMS4wNDI2LjMwOTcuMDM2LjMxOS4wMzY3LjQ3OTcuMDM5Ny4xMjk2LjAwMjQuMTUwNi0uMDAxNS4xNzkzLS4wMzMzem00LjkzMzUtMi42ODgzYy0uNjM1Mi0uMTAzLTEuMjQ3NC0uNDYxNi0xLjg4MjgtMS4xMDMtLjQxOS0uNDIyOC0uMzcwNC0uNDU1Ny4yMjU2LS4xNTI0LjQzNjcuMjIyMi41OTQ0LjI3NzcuNzc3OC4yNzM0LjA3MDQtLjAwMTcuMTYyNi0uMDAzNy4yMDQ5LS4wMDQ1LjE5MDMtLjAwMzguOTI1Mi40MDE3Ljg1NTEuNDcxOC0uMDI0LjAyNC0uMTU5LS4wMTkyLS40MTk2LS4xMzQyLS44MzQ3LS4zNjg1LTEuMzY4NS0uMzcxMS0uODAyNi0uMDA0MS41OTUzLjM4NjIgMS4yNDk0LjU3MSAxLjY0LjQ2MzIuMTQ2LS4wNDAyLjE4Ni0uMDM5My4xOTIzLjAwNDQuMDI0Mi4xNjk0LS4zNDkzLjI1Ny0uNzkwNy4xODU0em0tMy41MTY4IDIuNjkwM2MuMDc0Ni0uMDE4Ny4zNjIzLS4wNzI4LjYzOTQtLjEyMDQgMS4zMS0uMjI0NyAxLjYwOTItLjMzODkgMi40MjI1LS45MjQzLjU1Mi0uMzk3Mi42MTkxLS43ODg3LjEyNTQtLjczMS0uNTUxNy4wNjQ0LS42MTI1LjExMzMtLjc3NDUuNjIyOS0uMTg4NS41OTMyLS4yNzIuNjY1LS43NzQ4LjY2NTYtLjUyNzEuMDAwNi0uNzM5OC0uMTgxLS44ODktLjc1OTYtLjA1MjgtLjIwNDUtLjA2Ny0uMjIyMi0uMjE2Ni0uMjcxNS0uNTU1OS0uMTgzMy0uODMyMS4xODU4LS44MzIyIDEuMTEyIDAgLjE1ODYtLjAwOTcuMTY3Mi0uMTkyNy4xNzIyLS4yOTgxLjAwODEtLjMzMDMtLjA5MS0uMTU0Mi0uNDc0Ny4yMzM0LS41MDkuMjQyMy0uNjA4OS4wNjE0LS42ODU1LS4zOTItLjE2NTktLjc4MzEuMjU0Ni0uNzA5MS43NjIyLjA2NjMuNDU1MS4zOTMzLjY5NTMuODAyMy41ODkyLjExNi0uMDMwMS4xMTYtLjAzMDEuMjE4Mi4wMjI2LjEyMy4wNjM0LjEwNjkuMDYyMi4yNzQuMDIwM3ptMS44MjItLjc3NjhjLjIzMjctLjAyMDguMzg3Ny0uMTg0OC4zODc3LS40MTAyIDAtLjMyNTgtLjI4MjUtLjQ2ODItLjYyOTItLjMxNy0uMTAxNS4wNDQyLS4xMjIzLjA0NzYtLjIwNjQuMDM0LS4zNTcxLS4wNTc1LS41MDIzLjIzODgtLjI1NDguNTIuMTU5NC4xODEyLjI3OTkuMjEwOC43MDI2LjE3MzJ6bS0zLjIxMDYtLjk1MDJjLjM3My0uMTkwNC44MzI3LTEuMTYzOC42ODQzLTEuNDQ5NC0uMDQzNy0uMDg0NC0uMDU5OC0uMDc2OS0uMTU4LjA3MzYtLjA0OC4wNzM0LS4xNjc3LjI0MDItLjI2Ni4zNzA4LS40NTguNjA3Ni0uNTc3Ny44NjcyLS40NTU5Ljk4OS4wNjE3LjA2MTcuMDk5OC4wNjQ4LjE5NTYuMDE2ek0xMC4zMDIgMjEuMjYxM2MtLjEwMTgtLjAxMy0uNDU1My0uMDc3Mi0uNzg1NS0uMTQyNi0uNjQzNC0uMTI3My0uOTMyNi0uMTcxNC0xLjEyMzQtLjE3MTQtLjE3NjMgMC0uMjE2Mi0uMDM0MS0uMTY2OS0uMTQyNS4wNTM2LS4xMTc1LjIxNzItLjEwNS43NTcyLjA1NzkuMzU2MS4xMDc0LjYwMjIuMTY3Ljc0MzcuMTgwMy4wNjEuMDA1Ny4xNDk0LjAyMS4xOTY0LjAzMzguMTM0Ni4wMzcgMS4yMDU2LjE3NzkgMS4zNTE2LjE3NzkuMDA0NCAwIC4wMDMzLjAwNzctLjAwMjUuMDE3LS4wMTU4LjAyNTctLjc1MS4wMTc3LS45NzA2LS4wMTA0em0xLjc1ODctLjc0ODRjLS4yMjMxLS4xMDkzLS4yOTIxLS4yNTM3LS4zNTE0LS43MzU0LS4wNjIxLS41MDQ1LS4xNTkxLS42Ni0uNDUyOS0uNzI2M2E0LjA5MDkgNC4wOTA5IDAgMCAxLS4xMTUyLS4wMjc0Yy0uMDQwNC0uMDExLS4wNzE2LS4xNzMtLjA1NjUtLjI5MzkuMDM0LS4yNzI0LjIwNDgtLjQ5MTYuNzE3Mi0uOTIwMy4xMTI3LS4wOTQzLjIzNDgtLjIwMjYuMjcxMy0uMjQwNS4zNjA1LS4zNzQ3IDEuNTMwNi4xMDUzIDEuOTg5NC44MTYuMzI1OC41MDQ3LjMyMi42MTg1LS4wMjguODQ5Mi0uNDMxNS4yODQ0LS40OTMzLjM2NTctLjQ4NDYuNjM3Mi4wMDMuMDg5Mi4wMDY1LjIwNDQuMDA4LjI1NjEuMDA5NS4zMjM1LS4xNzcxLjQwNzQtLjY0NTIuMjktLjM5NjQtLjA5OTQtLjUyMzItLjA4MzgtLjY4MjkuMDg0Mi0uMDU5Ny4wNjI4LS4wNjMyLjA2My0uMTY5Mi4wMTExem0xLjEzODEtLjIyNTRjLjMxLS4xNTg2LjM3NDktLjU1MTIuMTQ3NC0uODkyLS4yNDQtLjM2NTItLjU1OTgtLjIzOTMtLjU0ODUuMjE4Ny4wMTM5LjU2MzcuMTU0NC43OTk1LjQwMTEuNjczM3ptLS44NjU3LS4wODIzYy4yNDUtLjExMDUuMzI2LS41MzcuMTY2NS0uODc1MS0uMTU1Ni0uMzI5Ny0uNDQ2My0uMTM1NS0uNTAxNi4zMzVhMy43MjE0IDMuNzIxNCAwIDAgMS0uMDMzLjIyMTVjLS4wNjcxLjM0NS4wNjIuNDU2Ny4zNjgxLjMxODZ6bS0uNTM5Ny0xLjEzNjdjLjI3MTQtLjE4MTYuNTQyLS4xOSAxLjM3NDctLjA0My40Nzc1LjA4NDUuODYyNy4wMjg1Ljg2MjEtLjEyNTMtLjAwMjMtLjU3MjUtLjM0ODMtLjc0MjItMS4yMjkzLS42MDMtLjU1NDUuMDg3Ni0uNzU4OS4wODc5LTEuMDA4My4wMDE2LS4yNzQ3LS4wOTUtLjYwMTUuMTY1Mi0uNTUzMi40NDA0LjA0NS4yNTY1LjM3MjEuNDUxLjU1NC4zMjkzem0tMi4wMjM2LS44ODgyYy0xLjI0Mi0uMjYxMS0yLjAyOTctMS43NDc3LTEuMzc4OC0yLjYwMjIuMTk5NS0uMjYxOC4yNjI0LS4xNzA0LjEyMzIuMTc4OS0uNTgwNyAxLjQ1NzcgMS4yMzAzIDIuODIyNCAyLjYzNTMgMS45ODU4IDEuMDI3LS42MTE1IDEuMDE0NC0yLjEwNjctLjAyMjEtMi42MTlhMy4xMDU2IDMuMTA1NiAwIDAgMS0uMTk2NC0uMTExNGMtLjQwMTUtLjI0Ny0uODUzNC0uMjMwOS0xLjcxNjUuMDYxMi0uNTA0LjE3MDUtLjQ4ODYuMTcwNi0uMzI5Ni0uMDAxMS42MDQ3LS42NTMyIDEuODk4My0uNjMzNSAyLjY4NjUuMDQxIDEuNDMyNCAxLjIyNTUuMTE0MiAzLjQ2OTUtMS44MDE2IDMuMDY2OHptNS4wMzc3LS4xMTI1Yy0xLjk1OTEtLjMtMi42MjAzLTIuMTg2Ny0xLjE1MzUtMy4yOTE1IDEuMzEwNy0uOTg3MyAzLjMyMjItLjAwOTUgMy4yNTc3IDEuNTgzNi0uMDM5OC45ODExLTEuMTIwNyAxLjg1ODUtMi4xMDQyIDEuNzA4em0uNDAxMy0uMzIwM2MxLjUwMzEtLjAyIDIuMDA1OS0xLjkzMDYuNzM1LTIuNzkzNi0uNzk4Mi0uNTQyMS0yLjA5MjctLjI5NS0yLjU1NTIuNDg3Ni0uNTQyLjkxNzEuMDQ3NCAyLjE0NjcgMS4xMTE1IDIuMzE4NS4wMjgyLjAwNDUuMTQ3My4wMDQzLjI2NDctLjAwMDYuMTE3NC0uMDA1LjMxNzItLjAxMDMuNDQ0LS4wMTJ6bS0xLjUwNC0uODM1NmMtLjQ0MDItLjEyNDUtLjUwOTUtLjY1NDQtLjEzODEtMS4wNTY2LjMzNTUtLjM2MzMuODE3LS4yMDYyIDEuMDE4Mi4zMzIyLjA4OTIuMjM4Ny4wNTguMjc0OC0uMjIyNS4yNTgxLS4xNzkzLS4wMTA2LS4yNjM5LjAwMjUtLjI2MzUuMDQxIDAgLjAwNjcuMDYwMy4wNTY2LjEzNC4xMTA5LjIxOTcuMTYyLjIyNDcuMjE1My4wMjY3LjI4MzYtLjE0NC4wNDk3LS40MzE2LjA2NTctLjU1NDguMDMwOHptLTQuNjUzNS4xMDcyYy0uNDY2My0uMDQ0NC0uNjMwNi0uMjk3Mi0uNDQxOC0uNjc5My4yMjQtLjQ1My43MzItLjU4NTUgMS4wMTQ2LS4yNjQ1LjQyNzYuNDg1OC4xMTAyIDEuMDA4OC0uNTcyOC45NDM4ek01LjI2MDkgNC44OTRjLS4wMDYxLS4wMS4wMDg4LS4wNDY1LjAzMzEtLjA4MTEuMDI0My0uMDM0Ny4wNjQxLS4wOTEzLjA4ODUtLjEyNTguMDI0My0uMDM0NS4wNDgzLS4wOTM5LjA1MzQtLjEzMi4wMDU4LS4wNDMuMDE5Ny0uMDcyMi4wMzctLjA3NzUuMDcwNi0uMDIxNC42ODkzLS4xNDg2Ljk0OTgtLjE5NTMuNjY5NC0uMTIuODUxLS4xMzIgMi4zNjUyLS4xNTYgMi44MS0uMDQ0NSAzLjg4NTEtLjA4IDQuOTI0Ni0uMTYyNi4zNTc2LS4wMjg0LjMzODctLjAzMjEuNDIzMy4wODQzLjEzMzEuMTgzMy4wMTYzLjMxMS0uMzM3Ny4zNjkzLS40MjUyLjA2OTktMi4xMzc4LjAyNTgtMi41OTM5LS4wNjY4LS40ODM3LS4wOTgzLS42MzYtLjA5MzEtLjc3NTUuMDI2NC0uMDgxMi4wNjk0LS4wNjMzLjA2OTYtLjI3NzUtLjAwMTgtLjI3LS4wOS0uNTA3LS4xMTg2LS44NzY2LS4xMDYtLjMwMDIuMDEwMy0uNDE3LjAyMzYtMS4xMzU3LjEyOS0uMTkyNS4wMjgzLS40NjE1LjA1OTktLjU5NzYuMDcwMS0uNDcyMy4wMzU2LTEuMDEzLjEzNTYtMS43NTYyLjMyNS0uNDk3OC4xMjY3LS41MDcuMTI4NS0uNTI0Mi4xMDA4Wm0xMS45OTctMS4yMDgxYzAtLjA4NTQuMTEwMi0uMjA5LjU5NS0uNjY3OC4yNjkxLS4yNTQ3LjQ2MzgtLjQ4MTUuNDYzOC0uNTQwMSAwLS4wNTU2LjA0NzctLjA1OTguMDY2NS0uMDA2LjEwNDQuMjk5Ni0uMTA2OC41OTctLjY5ODMuOTgzM2EzMS4xMzMgMzEuMTMzIDAgMCAwLS4zMjA3LjIxMTVjLS4wODQ3LjA1NzgtLjEwNjIuMDYxNy0uMTA2Mi4wMTl6Ii8+PC9zdmc+;" parent="1" vertex="1">
                    <mxGeometry x="512.5" y="290" width="30" height="30" as="geometry"/>
                </mxCell>
                <mxCell id="nNA0iOwPdXY2K0Z5HGgE-12" value="&lt;div&gt;&lt;br&gt;&lt;/div&gt;" style="rounded=1;whiteSpace=wrap;html=1;strokeWidth=2;fillWeight=4;hachureGap=8;hachureAngle=45;sketch=1;dashed=1;fontFamily=Architects Daughter;fontSource=https%3A%2F%2Ffonts.googleapis.com%2Fcss%3Ffamily%3DArchitects%2BDaughter;fontSize=14;fillColor=#e1d5e7;strokeColor=#9673a6;" parent="1" vertex="1">
                    <mxGeometry x="640" y="250" width="120" height="110" as="geometry"/>
                </mxCell>
                <mxCell id="nNA0iOwPdXY2K0Z5HGgE-13" style="shape=image;editableCssRules=.*;image=data:image/svg+xml,PHN2ZyB2aWV3Qm94PSIwIDAgMjQgMjQiIHhtbG5zPSJodHRwOi8vd3d3LnczLm9yZy8yMDAwL3N2ZyI+PHN0eWxlPip7ZmlsbDojMDBBREQ4fTwvc3R5bGU+PHBhdGggZD0iTTEuODExIDEwLjIzMWMtLjA0NyAwLS4wNTgtLjAyMy0uMDM1LS4wNTlsLjI0Ni0uMzE1Yy4wMjMtLjAzNS4wODEtLjA1OC4xMjgtLjA1OGg0LjE3MmMuMDQ2IDAgLjA1OC4wMzUuMDM1LjA3bC0uMTk5LjMwM2MtLjAyMy4wMzYtLjA4Mi4wNy0uMTE3LjA3ek0uMDQ3IDExLjMwNmMtLjA0NyAwLS4wNTktLjAyMy0uMDM1LS4wNThsLjI0NS0uMzE2Yy4wMjMtLjAzNS4wODItLjA1OC4xMjktLjA1OGg1LjMyOGMuMDQ3IDAgLjA3LjAzNS4wNTguMDdsLS4wOTMuMjhjLS4wMTIuMDQ3LS4wNTguMDctLjEwNS4wN3ptMi44MjggMS4wNzVjLS4wNDcgMC0uMDU5LS4wMzUtLjAzNS0uMDdsLjE2My0uMjkyYy4wMjMtLjAzNS4wNy0uMDcuMTE3LS4wN2gyLjMzN2MuMDQ3IDAgLjA3LjAzNS4wNy4wODJsLS4wMjMuMjhjMCAuMDQ3LS4wNDcuMDgyLS4wODIuMDgyem0xMi4xMjktMi4zNmMtLjczNi4xODctMS4yMzkuMzI3LTEuOTYzLjUxNC0uMTc2LjA0Ni0uMTg3LjA1OC0uMzQtLjExNy0uMTc0LS4xOTktLjMwMy0uMzI3LS41NDgtLjQ0NC0uNzM3LS4zNjItMS40NS0uMjU3LTIuMTE1LjE3NS0uNzk1LjUxNC0xLjIwNCAxLjI3NC0xLjE5MiAyLjIyLjAxMS45MzUuNjU0IDEuNzA2IDEuNTc3IDEuODM1Ljc5NS4xMDUgMS40Ni0uMTc1IDEuOTg3LS43Ny4xMDUtLjEzLjE5OC0uMjcuMzE1LS40MzRIMTAuNDdjLS4yNDUgMC0uMzA0LS4xNTItLjIyMi0uMzUuMTUyLS4zNjIuNDMyLS45Ny41OTYtMS4yNzRhLjMxNS4zMTUgMCAwMS4yOTItLjE4N2g0LjI1M2MtLjAyMy4zMTYtLjAyMy42MzEtLjA3Ljk0N2E0Ljk4MyA0Ljk4MyAwIDAxLS45NTggMi4yOWMtLjg0MSAxLjExLTEuOTQgMS44LTMuMzMgMS45ODYtMS4xNDUuMTUyLTIuMjA5LS4wNy0zLjE0My0uNzctLjg2NS0uNjU1LTEuMzU2LTEuNTItMS40ODQtMi41OTUtLjE1Mi0xLjI3NC4yMjItMi40MTkuOTkzLTMuNDI0LjgzLTEuMDg2IDEuOTI4LTEuNzc2IDMuMjcyLTIuMDIgMS4wOTgtLjIgMi4xNS0uMDcgMy4wOTYuNTcxLjYyLjQxIDEuMDYzLjk3IDEuMzU2IDEuNjQ4LjA3LjEwNS4wMjMuMTY0LS4xMTcuMm0zLjg2OCA2LjQ2MWMtMS4wNjQtLjAyNC0yLjAzNC0uMzI4LTIuODUyLTEuMDI5YTMuNjY1IDMuNjY1IDAgMDEtMS4yNjItMi4yNTVjLS4yMS0xLjMyLjE1Mi0yLjQ4OS45NDctMy41MjkuODUzLTEuMTIyIDEuODgxLTEuNzA2IDMuMjcyLTEuOTUgMS4xOTItLjIxIDIuMzE0LS4wOTUgMy4zMy41OTUuOTIzLjYzIDEuNDk2IDEuNDg0IDEuNjQ4IDIuNjA1LjE5OCAxLjU3OC0uMjU3IDIuODYzLTEuMzQ0IDMuOTYyLS43NzEuNzgzLTEuNzE4IDEuMjczLTIuODA1IDEuNDk1LS4zMTUuMDYtLjYzLjA3LS45MzQuMTA2em0yLjc4LTQuNzJjLS4wMTEtLjE1My0uMDExLS4yNy0uMDM0LS4zODctLjIxLTEuMTU3LTEuMjc0LTEuODEtMi4zODQtMS41NTQtMS4wODcuMjQ1LTEuNzg4LjkzNS0yLjA0NSAyLjAzMy0uMjEuOTEyLjIzNCAxLjgzNSAxLjA3NSAyLjIxLjY0My4yOCAxLjI4NS4yNDQgMS45MDUtLjA3LjkyMy0uNDggMS40MjUtMS4yMjggMS40ODQtMi4yMzN6Ii8+PC9zdmc+;" parent="1" vertex="1">
                    <mxGeometry x="640" y="250" width="55" height="40" as="geometry"/>
                </mxCell>
                <mxCell id="nNA0iOwPdXY2K0Z5HGgE-15" value="&lt;div&gt;&lt;font data-font-src=&quot;https://fonts.googleapis.com/css?family=Architects+Daughter&quot; face=&quot;Architects Daughter&quot; style=&quot;font-size: 12px;&quot;&gt;Machine #1&lt;/font&gt;&lt;/div&gt;" style="text;html=1;strokeColor=none;fillColor=none;align=center;verticalAlign=middle;whiteSpace=wrap;rounded=0;dashed=1;strokeWidth=1;" parent="1" vertex="1">
                    <mxGeometry x="655" y="320" width="90" height="30" as="geometry"/>
                </mxCell>
                <mxCell id="nNA0iOwPdXY2K0Z5HGgE-49" value="" style="endArrow=classic;startArrow=classic;html=1;rounded=0;entryX=0.5;entryY=1;entryDx=0;entryDy=0;sketch=1;curveFitting=1;jiggle=2;dashed=1;exitX=0.323;exitY=0.008;exitDx=0;exitDy=0;exitPerimeter=0;strokeWidth=1;" parent="1" source="nNA0iOwPdXY2K0Z5HGgE-10" target="5" edge="1">
                    <mxGeometry width="50" height="50" relative="1" as="geometry">
                        <mxPoint x="670" y="430" as="sourcePoint"/>
                        <mxPoint x="460" y="380" as="targetPoint"/>
                    </mxGeometry>
                </mxCell>
                <mxCell id="nNA0iOwPdXY2K0Z5HGgE-51" value="" style="endArrow=classic;startArrow=classic;html=1;rounded=0;entryX=0.5;entryY=1;entryDx=0;entryDy=0;exitX=0.5;exitY=0;exitDx=0;exitDy=0;sketch=1;curveFitting=1;jiggle=2;dashed=1;strokeWidth=1;" parent="1" source="nNA0iOwPdXY2K0Z5HGgE-10" target="nNA0iOwPdXY2K0Z5HGgE-12" edge="1">
                    <mxGeometry width="50" height="50" relative="1" as="geometry">
                        <mxPoint x="710" y="440" as="sourcePoint"/>
                        <mxPoint x="570" y="370" as="targetPoint"/>
                    </mxGeometry>
                </mxCell>
                <mxCell id="nNA0iOwPdXY2K0Z5HGgE-54" value="" style="endArrow=none;startArrow=classic;html=1;rounded=0;entryX=0.5;entryY=1;entryDx=0;entryDy=0;exitX=0.482;exitY=-0.047;exitDx=0;exitDy=0;exitPerimeter=0;sketch=1;curveFitting=1;jiggle=2;endFill=0;strokeWidth=2;fillColor=#d5e8d4;strokeColor=#82b366;" parent="1" source="nNA0iOwPdXY2K0Z5HGgE-52" target="5" edge="1">
                    <mxGeometry width="50" height="50" relative="1" as="geometry">
                        <mxPoint x="563" y="450" as="sourcePoint"/>
                        <mxPoint x="450" y="380" as="targetPoint"/>
                    </mxGeometry>
                </mxCell>
                <mxCell id="nNA0iOwPdXY2K0Z5HGgE-55" value="" style="group;rotation=90;fillColor=default;fontColor=#333333;strokeColor=none;" parent="1" vertex="1" connectable="0">
                    <mxGeometry x="495" y="480" width="90" height="90" as="geometry"/>
                </mxCell>
                <mxCell id="nNA0iOwPdXY2K0Z5HGgE-52" value="" style="rounded=1;whiteSpace=wrap;html=1;strokeWidth=1;fillWeight=4;hachureGap=8;hachureAngle=45;fillColor=none;sketch=1;align=center;" parent="nNA0iOwPdXY2K0Z5HGgE-55" vertex="1">
                    <mxGeometry width="90" height="90" as="geometry"/>
                </mxCell>
                <mxCell id="nNA0iOwPdXY2K0Z5HGgE-53" value="&lt;font face=&quot;Architects Daughter&quot;&gt;&lt;span style=&quot;font-size: 14px;&quot;&gt;Fly&lt;/span&gt;&lt;/font&gt;&lt;div&gt;&lt;font face=&quot;Architects Daughter&quot;&gt;&lt;span style=&quot;font-size: 14px;&quot;&gt;Machines&lt;/span&gt;&lt;/font&gt;&lt;/div&gt;&lt;div&gt;&lt;font face=&quot;Architects Daughter&quot;&gt;&lt;span style=&quot;font-size: 14px;&quot;&gt;API&lt;/span&gt;&lt;/font&gt;&lt;/div&gt;" style="text;html=1;strokeColor=none;fillColor=none;align=center;verticalAlign=middle;whiteSpace=wrap;rounded=0;dashed=1;strokeWidth=1;" parent="nNA0iOwPdXY2K0Z5HGgE-55" vertex="1">
                    <mxGeometry x="3.75" y="30" width="82.5" height="30" as="geometry"/>
                </mxCell>
                <mxCell id="nNA0iOwPdXY2K0Z5HGgE-56" value="" style="endArrow=none;startArrow=classic;html=1;rounded=0;entryX=0.75;entryY=0;entryDx=0;entryDy=0;sketch=1;curveFitting=1;jiggle=2;endFill=0;strokeWidth=2;fillColor=#d5e8d4;strokeColor=#82b366;" parent="1" source="nNA0iOwPdXY2K0Z5HGgE-12" target="nNA0iOwPdXY2K0Z5HGgE-52" edge="1">
                    <mxGeometry width="50" height="50" relative="1" as="geometry">
                        <mxPoint x="598" y="466" as="sourcePoint"/>
                        <mxPoint x="620" y="380" as="targetPoint"/>
                    </mxGeometry>
                </mxCell>
                <mxCell id="nNA0iOwPdXY2K0Z5HGgE-63" value="" style="pointerEvents=1;shadow=0;dashed=0;html=1;strokeColor=default;fillColor=#FFFFFF;labelPosition=center;verticalLabelPosition=bottom;verticalAlign=top;outlineConnect=0;align=center;shape=mxgraph.office.users.mobile_user;strokeWidth=2;" parent="1" vertex="1">
                    <mxGeometry x="390" y="440" width="59" height="56" as="geometry"/>
                </mxCell>
                <mxCell id="nNA0iOwPdXY2K0Z5HGgE-64" value="&lt;span style=&quot;font-family: &amp;quot;Architects Daughter&amp;quot;; font-size: 12px; text-wrap: wrap;&quot;&gt;HTTP&lt;/span&gt;&lt;div&gt;&lt;font face=&quot;Architects Daughter&quot;&gt;&lt;span style=&quot;font-size: 12px; text-wrap: wrap;&quot;&gt;req&lt;/span&gt;&lt;/font&gt;&lt;/div&gt;" style="endArrow=none;startArrow=classic;html=1;rounded=0;exitX=0.39;exitY=1.029;exitDx=0;exitDy=0;exitPerimeter=0;sketch=1;curveFitting=1;jiggle=2;endFill=0;strokeWidth=2;fillColor=#d5e8d4;strokeColor=#82b366;" parent="1" source="5" target="nNA0iOwPdXY2K0Z5HGgE-63" edge="1">
                    <mxGeometry x="0.3469" y="-23" width="50" height="50" relative="1" as="geometry">
                        <mxPoint x="548" y="486" as="sourcePoint"/>
                        <mxPoint x="570" y="370" as="targetPoint"/>
                        <mxPoint as="offset"/>
                    </mxGeometry>
                </mxCell>
                <mxCell id="nNA0iOwPdXY2K0Z5HGgE-10" value="" style="rounded=1;whiteSpace=wrap;html=1;strokeWidth=1;fillWeight=4;hachureGap=8;hachureAngle=45;fillColor=default;sketch=1;dashed=1;align=center;fontColor=#333333;strokeColor=#666666;" parent="1" vertex="1">
                    <mxGeometry x="630" y="430" width="140" height="170" as="geometry"/>
                </mxCell>
                <mxCell id="nNA0iOwPdXY2K0Z5HGgE-11" value="&lt;font data-font-src=&quot;https://fonts.googleapis.com/css?family=Architects+Daughter&quot; face=&quot;Architects Daughter&quot; style=&quot;font-size: 14px;&quot;&gt;Fly Machine DB&amp;nbsp;&lt;/font&gt;&lt;div&gt;&lt;font data-font-src=&quot;https://fonts.googleapis.com/css?family=Architects+Daughter&quot; face=&quot;Architects Daughter&quot; style=&quot;font-size: 9px;&quot;&gt;region: nrt (Tokyo)&lt;/font&gt;&lt;/div&gt;" style="text;html=1;strokeColor=none;fillColor=none;align=center;verticalAlign=middle;whiteSpace=wrap;rounded=0;dashed=1;strokeWidth=1;" parent="1" vertex="1">
                    <mxGeometry x="640" y="440" width="120" height="30" as="geometry"/>
                </mxCell>
                <mxCell id="nNA0iOwPdXY2K0Z5HGgE-22" value="" style="shape=mxgraph.cisco.storage.relational_database;html=1;pointerEvents=1;dashed=0;fillColor=#e1d5e7;strokeColor=#9673a6;strokeWidth=2;verticalLabelPosition=bottom;verticalAlign=top;align=center;outlineConnect=0;sketch=1;curveFitting=1;jiggle=2;" parent="1" vertex="1">
                    <mxGeometry x="664.27" y="485" width="71.46" height="80" as="geometry"/>
                </mxCell>
                <mxCell id="nNA0iOwPdXY2K0Z5HGgE-30" value="&lt;font data-font-src=&quot;https://fonts.googleapis.com/css?family=Architects+Daughter&quot; face=&quot;Architects Daughter&quot; style=&quot;font-size: 12px;&quot;&gt;PostgreSQL&lt;/font&gt;" style="text;html=1;strokeColor=none;fillColor=none;align=center;verticalAlign=middle;whiteSpace=wrap;rounded=0;dashed=1;strokeWidth=1;" parent="1" vertex="1">
                    <mxGeometry x="640" y="565" width="120" height="30" as="geometry"/>
                </mxCell>
            </root>
        </mxGraphModel>
    </diagram>
</mxfile>
